<svg width="95" height="31" viewBox="0 0 95 31" fill="none" xmlns="http://www.w3.org/2000/svg">
    <g clip-path="url(#clip0_475_1972)">
        <path d="M29.3966 30.2238C29.2892 30.2006 29.1817 30.1728 29.0734 30.1543C28.5093 30.0571 28.022 29.8088 27.6219 29.4003C26.4789 28.2342 25.3387 27.0652 24.1975 25.8972C22.9489 24.619 21.7012 23.3398 20.4526 22.0606C20.3971 22.0041 20.3443 21.9458 20.2812 21.8791C21.8521 20.2304 23.4138 18.5909 25.0051 16.9199C25.0524 16.9847 25.0839 17.0375 25.1256 17.082C29.0808 21.2798 33.0368 25.4767 36.9929 29.6745C37.0179 29.7014 37.0448 29.7273 37.0679 29.756C37.1865 29.9005 37.1726 30.0404 37.0289 30.1553C37.0012 30.1775 36.9734 30.2006 36.9447 30.2238H29.3938H29.3966Z" fill="white"/>
        <path d="M94.5377 13.8817H92.6546V10.4231H89.145C89.1264 10.6509 89.1385 10.8769 89.1366 11.102C89.1348 11.3299 89.1366 11.5577 89.1366 11.7856C89.1366 12.02 89.1366 12.2534 89.1366 12.4877V13.8808C88.5077 13.8845 87.888 13.8817 87.273 13.8827C87.2332 13.7345 87.2248 5.4574 87.2628 5.24436H89.1301C89.144 5.46574 89.1348 5.69082 89.1366 5.9159C89.1385 6.14376 89.1366 6.37162 89.1366 6.59948V7.26454C89.1366 7.4924 89.1366 7.72026 89.1366 7.94812V8.62614C89.2774 8.67153 92.4193 8.68172 92.6527 8.63726V5.23047H94.5377V13.8817Z" fill="white"/>
        <path d="M24.7164 14.1302C23.2186 12.6509 21.7561 11.205 20.2852 9.75179C20.3296 9.70085 20.3639 9.65824 20.4009 9.61841C22.8268 7.0434 25.2546 4.47025 27.6786 1.89339C28.0037 1.54697 28.3779 1.29039 28.8457 1.1885C28.9957 1.15608 29.1504 1.13107 29.3023 1.13107C31.8866 1.12737 34.4709 1.1283 37.0551 1.1283C37.0857 1.1283 37.1172 1.12644 37.1478 1.13107C37.245 1.14589 37.2821 1.22185 37.2283 1.30429C37.2015 1.34504 37.1635 1.37839 37.1292 1.41358C34.9257 3.6644 32.7221 5.91429 30.5194 8.1651C28.6141 10.1121 26.7079 12.0592 24.8035 14.0062C24.7738 14.0367 24.7534 14.0774 24.7164 14.1302Z" fill="white"/>
        <path d="M14.4541 15.6567L1.18262 29.899C1.14835 29.9342 1.11038 29.9674 1.08351 30.0082C1.02979 30.0906 1.06592 30.1665 1.1641 30.1814C1.19467 30.1861 1.22523 30.1842 1.25673 30.1842C3.84099 30.1842 6.42526 30.1842 9.00953 30.1814C9.16237 30.1814 9.31705 30.1565 9.46618 30.124C9.93394 30.0222 10.3082 29.7645 10.6333 29.4191L23.5879 15.6604L10.6323 1.89431C10.3072 1.54789 9.93302 1.29132 9.46526 1.18943C9.3152 1.15701 9.16052 1.132 9.00861 1.132C6.42434 1.1283 3.84007 1.1283 1.2558 1.1283C1.22523 1.1283 1.19374 1.12644 1.16317 1.13107C1.06592 1.14682 1.02979 1.22185 1.08351 1.30521C1.11038 1.34597 1.14835 1.37931 1.18262 1.41451L14.4541 15.6567Z" fill="white"/>
        <path d="M45.5798 22.4559V17.2374C45.7308 17.1976 47.2248 17.1892 47.4444 17.2254V25.8424C47.3814 25.8461 47.3221 25.8516 47.2628 25.8516C46.8562 25.8516 46.4486 25.8461 46.042 25.8553C45.8994 25.8581 45.8086 25.8155 45.7197 25.6988C44.4312 24 43.1363 22.3059 41.8433 20.6108C41.7923 20.5432 41.7395 20.4775 41.6914 20.4145C41.67 20.4228 41.6636 20.4237 41.6589 20.4274C41.6552 20.4311 41.6524 20.4376 41.6515 20.4432C41.6487 20.4617 41.646 20.4793 41.646 20.4978C41.645 22.2596 41.6441 24.0213 41.6432 25.784C41.6432 25.7896 41.6413 25.796 41.6395 25.8016C41.6376 25.8072 41.6367 25.8136 41.6348 25.8192C41.5079 25.86 40.1436 25.8757 39.7971 25.8405C39.7555 25.7043 39.7351 17.7209 39.7768 17.217C39.8314 17.2133 39.8898 17.2059 39.9481 17.2059C40.4168 17.205 40.8855 17.2096 41.3542 17.2022C41.4792 17.2003 41.5543 17.242 41.6293 17.3411C42.877 18.9852 44.1293 20.6266 45.3807 22.2688C45.4325 22.3365 45.4844 22.4032 45.5363 22.4708C45.5511 22.4661 45.565 22.4606 45.5798 22.4559Z" fill="white"/>
        <path d="M57.8508 5.24442H59.707V13.8754C59.6496 13.8772 59.5894 13.8818 59.5301 13.8818C59.1105 13.8818 58.6909 13.8772 58.2722 13.8856C58.1472 13.8883 58.0722 13.8457 57.9981 13.7475C56.7078 12.0497 55.4147 10.3556 54.1216 8.65955C54.067 8.5873 54.0105 8.51598 53.9364 8.45114C53.9021 8.68178 53.9123 8.90686 53.9105 9.13194C53.9086 9.35332 53.9105 9.57562 53.9105 9.79699V13.1788C53.9105 13.4058 53.9105 13.6318 53.9105 13.8698H52.0681C52.0264 13.7392 52.0153 5.47228 52.0598 5.2333C52.1154 5.2333 52.1756 5.2333 52.2358 5.2333C52.6924 5.2333 53.1482 5.23794 53.6048 5.23053C53.7354 5.22867 53.8169 5.26758 53.8966 5.37224C55.1517 7.02655 56.4114 8.67807 57.6702 10.3296C57.7146 10.388 57.7609 10.4436 57.8137 10.5103C57.8749 10.4362 57.8508 10.3611 57.8508 10.2935C57.8526 8.68548 57.8517 7.07749 57.8517 5.4695V5.24257L57.8508 5.24442Z" fill="white"/>
        <path d="M69.832 13.8686V5.24414H76.7669C76.7308 5.30249 76.703 5.35251 76.6706 5.39883C76.3538 5.86196 76.0333 6.32138 75.7221 6.78822C75.6526 6.89196 75.5794 6.93179 75.4535 6.93179C74.2818 6.92716 73.11 6.92901 71.9374 6.92901C71.8707 6.92901 71.804 6.92901 71.7234 6.92901V8.67872C72.1754 8.68242 72.6228 8.67964 73.0702 8.68057C73.5204 8.68057 73.9705 8.68057 74.4207 8.68057H75.7619C75.8036 8.83618 75.8092 10.1654 75.7703 10.3738H71.7216V12.1809C72.1097 12.2068 72.4959 12.1892 72.8813 12.192C73.2694 12.1957 73.6584 12.192 74.0474 12.192H75.2136C75.6017 12.192 75.9889 12.192 76.3723 12.192C76.4177 12.3319 76.4325 13.561 76.3946 13.8676H69.8329L69.832 13.8686Z" fill="white"/>
        <path d="M49.543 25.8429V17.2352C49.6848 17.1981 55.7508 17.1851 56.0352 17.2185C56.076 17.3546 56.0815 18.694 56.0361 18.8895C55.272 18.8895 54.5022 18.8895 53.7325 18.8895C52.9628 18.8895 52.206 18.8895 51.4317 18.8895V20.6494C52.785 20.6512 54.1327 20.6494 55.5063 20.6503C55.5174 21.2107 55.5091 21.7609 55.5119 22.3333C55.046 22.3463 54.5986 22.3379 54.1512 22.3398C53.701 22.3416 53.2509 22.3398 52.8007 22.3398H51.4548C51.4141 22.4806 51.403 23.8839 51.4409 24.1599C51.9958 24.1636 52.5543 24.1608 53.1129 24.1617C53.6742 24.1617 54.2355 24.1617 54.7968 24.1617C55.3581 24.1617 55.9185 24.1617 56.4993 24.1617C56.4743 24.2127 56.4613 24.2516 56.4391 24.2849C56.1084 24.7684 55.7759 25.2492 55.448 25.7345C55.3905 25.8198 55.3275 25.855 55.222 25.855C53.3778 25.8522 51.5336 25.8531 49.6894 25.8522C49.6468 25.8522 49.6051 25.8475 49.5449 25.8429H49.543Z" fill="white"/>
        <path d="M66.6172 17.2136H68.5169V17.4368C68.5169 18.9772 68.5169 20.5176 68.5169 22.058C68.5169 22.3488 68.5438 22.6359 68.6188 22.9175C68.8337 23.7206 69.3941 24.18 70.2259 24.23C70.5556 24.2504 70.8789 24.2152 71.1883 24.093C71.6903 23.8947 71.9904 23.5168 72.1442 23.0111C72.2359 22.7082 72.2609 22.396 72.2609 22.0802C72.259 20.5398 72.2609 18.9994 72.2609 17.4591C72.2609 17.3859 72.2609 17.3118 72.2609 17.2423C72.3961 17.1969 73.8244 17.1812 74.1421 17.221C74.1467 17.2701 74.156 17.3229 74.1569 17.3757C74.1569 18.9967 74.1597 20.6167 74.1569 22.2377C74.156 22.7703 74.0763 23.2927 73.8957 23.7975C73.5363 24.8006 72.8481 25.4694 71.8302 25.7778C70.9002 26.0603 69.9545 26.0687 69.019 25.8093C67.8352 25.4823 67.1044 24.695 66.7848 23.5168C66.6616 23.0611 66.6209 22.5961 66.6209 22.1265C66.6199 20.5556 66.6209 18.9837 66.6209 17.4128V17.2127L66.6172 17.2136Z" fill="white"/>
        <path d="M75.5117 24.5887C75.8859 24.1404 76.2527 23.7023 76.6297 23.2512C76.689 23.2947 76.7427 23.3327 76.7946 23.3725C77.2624 23.7338 77.7635 24.0302 78.3405 24.1793C78.8055 24.2997 79.2751 24.3479 79.7484 24.234C79.8781 24.2025 80.0059 24.1478 80.1227 24.083C80.5636 23.8366 80.6256 23.1345 80.131 22.8603C79.9226 22.7445 79.7012 22.6436 79.4733 22.5713C79.0389 22.4333 78.5962 22.3231 78.159 22.1971C77.7681 22.085 77.3837 21.9517 77.0243 21.7581C76.5343 21.4941 76.1536 21.131 75.986 20.5863C75.7989 19.9796 75.7961 19.3702 76.0184 18.7727C76.2981 18.0234 76.8576 17.5584 77.594 17.2898C78.0636 17.1184 78.5517 17.0647 79.0491 17.0795C79.9541 17.1064 80.8025 17.3315 81.5769 17.8085C81.7538 17.9178 81.9215 18.0428 82.1076 18.1688C81.7723 18.6551 81.4481 19.1238 81.1175 19.6027C81.0489 19.5591 80.9915 19.5248 80.9359 19.4887C80.4672 19.1858 79.9763 18.9339 79.4252 18.8172C79.1084 18.7505 78.7898 18.7246 78.4711 18.7959C78.3581 18.8209 78.2451 18.8598 78.1414 18.9098C77.618 19.159 77.619 19.9065 78.0988 20.1556C78.3053 20.2631 78.523 20.3557 78.7444 20.4252C79.2205 20.5724 79.7049 20.6938 80.1829 20.8374C80.5793 20.9559 80.9609 21.1125 81.3138 21.332C81.8233 21.6478 82.1808 22.0785 82.3012 22.6769C82.4124 23.2253 82.3855 23.7681 82.1854 24.2951C81.9474 24.9222 81.4991 25.351 80.8998 25.6317C80.4644 25.8364 80.0004 25.9374 79.5234 25.9614C78.0923 26.0346 76.8085 25.6382 75.6859 24.7397C75.6284 24.6943 75.5747 24.6434 75.5117 24.5887Z" fill="white"/>
        <path d="M62.4366 21.4259C63.4379 22.894 64.4336 24.3538 65.4432 25.834C65.3802 25.8423 65.3404 25.8516 65.3015 25.8516C64.6596 25.8516 64.0186 25.8488 63.3767 25.8553C63.2619 25.8562 63.2007 25.8108 63.1415 25.7201C62.57 24.842 61.9948 23.9666 61.4214 23.0904C61.3816 23.0293 61.3399 22.9691 61.288 22.8922C61.2426 22.9561 61.2074 23.0043 61.1741 23.0534C60.5942 23.9324 60.0116 24.8114 59.4373 25.6941C59.3614 25.8108 59.2827 25.8571 59.1409 25.8553C58.5555 25.847 57.9692 25.8516 57.3829 25.8516C57.3282 25.8516 57.2727 25.8516 57.2245 25.8516C57.2152 25.8368 57.2115 25.8312 57.2097 25.8257C57.2078 25.8201 57.206 25.8136 57.2078 25.809C57.2143 25.7923 57.2208 25.7747 57.231 25.7599C58.2082 24.3307 59.1863 22.9024 60.1635 21.4732C60.1672 21.4685 60.1663 21.4611 60.1737 21.4333C59.228 20.043 58.273 18.6406 57.3042 17.217C57.3838 17.2114 57.4301 17.2049 57.4774 17.2049C58.1063 17.2049 58.7352 17.2086 59.3651 17.2012C59.4892 17.1994 59.5513 17.2475 59.6143 17.3457C60.1441 18.1701 60.6785 18.9908 61.2111 19.8124C61.2473 19.8679 61.2852 19.9217 61.3353 19.9939C61.3843 19.9244 61.4232 19.8716 61.4594 19.817C61.9957 18.9973 62.5329 18.1784 63.0637 17.355C63.1359 17.2438 63.2109 17.1994 63.3452 17.2012C63.9306 17.2086 64.517 17.204 65.1033 17.204H65.3274C64.353 18.6268 63.4017 20.0171 62.4366 21.4259Z" fill="white"/>
        <path d="M85.6473 6.42928C85.248 6.8887 84.8535 7.34442 84.4468 7.81311C84.3838 7.76124 84.3283 7.71586 84.2727 7.66954C83.8772 7.33609 83.4474 7.06377 82.9416 6.93224C81.5198 6.56266 80.1777 7.34257 79.8164 8.76624C79.6043 9.60172 79.6923 10.4122 80.1684 11.1458C80.7057 11.9739 81.4846 12.3351 82.4683 12.2721C83.0408 12.2351 83.5456 12.0285 83.9994 11.6858C84.1662 11.5599 84.3255 11.4237 84.5098 11.2755C84.9053 11.6738 85.3027 12.0739 85.6936 12.4676C85.6889 12.4944 85.6908 12.5093 85.6843 12.5167C85.1017 13.1521 84.4237 13.643 83.5771 13.8561C82.3183 14.1728 81.0873 14.1126 79.9387 13.4596C78.6892 12.7482 77.9787 11.6525 77.775 10.2353C77.6416 9.30439 77.7583 8.40036 78.1807 7.55376C78.855 6.20049 79.9544 5.40391 81.442 5.1566C82.397 4.9982 83.3353 5.08527 84.2384 5.45207C84.7479 5.65863 85.1869 5.97356 85.5815 6.35333C85.6028 6.3737 85.6213 6.39871 85.6473 6.42928Z" fill="white"/>
        <path d="M45.7891 8.80741V10.521C45.7067 10.5247 45.6298 10.5321 45.5529 10.5321C44.3441 10.5321 43.1354 10.5321 41.9266 10.5321C41.8479 10.5321 41.7691 10.5321 41.671 10.5321V13.8685H39.7925C39.7564 13.7351 39.749 5.45527 39.7869 5.24316H47.0451C47.0081 5.30429 46.9821 5.35153 46.9525 5.39506C46.6255 5.87301 46.2958 6.34911 45.9725 6.82984C45.9067 6.92803 45.8364 6.96508 45.7169 6.96508C44.446 6.96045 43.1761 6.9623 41.9053 6.9623C41.8331 6.9623 41.7608 6.9623 41.6802 6.9623V8.80649L45.7891 8.80741Z" fill="white"/>
        <path d="M68.3532 5.24725V6.97844C67.9178 7.00715 67.4834 6.9877 67.049 6.9914C66.6183 6.99511 66.1876 6.9914 65.7328 6.9914C65.7235 7.46009 65.73 7.91303 65.729 8.3669C65.7281 8.82262 65.729 9.27834 65.729 9.73499V13.8495C65.5762 13.8902 64.2387 13.9041 63.833 13.8717C63.8145 13.6688 63.8274 13.4623 63.8247 13.2557C63.8228 13.0464 63.8247 12.837 63.8247 12.6277V6.99511H61.207V5.26485C61.3358 5.2278 67.9289 5.20928 68.355 5.24818L68.3532 5.24725Z" fill="white"/>
        <path d="M47.9805 13.8657V5.24316H49.8487V13.8518C49.7255 13.8889 48.2954 13.9027 47.9805 13.8657Z" fill="white"/>
    </g>
    <defs>
        <clipPath id="clip0_475_1972">
            <rect width="94" height="30" fill="white" transform="translate(0.804688 0.236328)"/>
        </clipPath>
    </defs>
</svg>
