<svg width="110" height="30" viewBox="0 0 110 30" fill="none" xmlns="http://www.w3.org/2000/svg">
    <g clip-path="url(#clip0_475_1990)">
        <path d="M62.8118 10.4363C62.8118 7.25824 62.8665 4.29931 63.0308 1.55957L54.651 3.14862V3.91575L55.4725 4.02534C56.075 4.08013 56.4584 4.29931 56.6775 4.62808C56.8966 5.01165 57.0609 5.5596 57.1704 6.38152C57.28 7.97057 57.3895 11.5871 57.3347 17.2857C57.3347 22.9296 57.28 26.4913 57.1704 27.8612C60.1828 28.5187 62.5379 28.7927 64.2906 28.7927C67.5768 28.7927 70.151 27.8612 72.0132 25.9433C73.8754 24.0803 74.8612 21.4501 74.8612 18.2172C74.8612 15.6419 74.1492 13.5049 72.7252 11.8062C71.3012 10.1076 69.4937 9.28565 67.3577 9.28565C65.9337 9.28565 64.4549 9.66921 62.8118 10.4363ZM62.9761 27.3132C62.8665 25.5598 62.757 20.2995 62.757 11.6967C63.2499 11.5323 63.9072 11.4227 64.7287 11.4227C66.0432 11.4227 67.0838 12.0802 67.8506 13.4501C68.6174 14.82 69.0008 16.4638 69.0008 18.546C69.0008 21.1214 68.5626 23.2036 67.6863 24.957C66.81 26.6557 65.7146 27.5324 64.3453 27.5324C63.9072 27.4228 63.469 27.368 62.9761 27.3132ZM23.2128 2.10752H1.30469V3.20342L2.45487 3.31301C3.33119 3.47739 3.93367 3.80616 4.31706 4.29931C4.70045 4.84726 4.91953 5.72398 4.9743 6.92947C5.41246 12.8473 5.41246 18.3816 4.9743 23.4776C4.86476 24.683 4.64568 25.5598 4.31706 26.1077C3.93367 26.6557 3.33119 26.9844 2.45487 27.094L1.30469 27.2584V28.3543H15.4354V27.2584L13.9566 27.1488C13.0803 27.0392 12.4778 26.6557 12.0945 26.1625C11.7111 25.6146 11.492 24.7378 11.4372 23.5324C11.2729 21.3406 11.1634 18.82 11.1634 16.0255L14.121 16.0802C15.7093 16.135 16.8047 17.3405 17.3524 19.7515H18.4478V10.8199H17.3524C16.8047 13.1761 15.7641 14.3816 14.121 14.4364L11.1634 14.4912C11.1634 9.55962 11.2729 6.05275 11.4372 3.91575H15.7641C18.8312 3.91575 20.9125 5.88837 22.1174 9.8336L23.4319 9.45003L23.2128 2.10752ZM20.6386 18.9844C20.6386 21.8337 21.4602 24.1899 23.0485 26.0529C24.6369 27.9159 26.992 28.7927 29.9496 28.7927C32.9072 28.7927 35.3171 27.8612 37.0697 25.9433C38.8224 24.0803 39.6439 21.7241 39.6439 18.8748C39.6439 16.0255 38.8224 13.6693 37.234 11.8062C35.6457 9.94319 33.2906 9.06647 30.333 9.06647C27.3754 9.06647 24.9655 9.99798 23.2128 11.9158C21.4602 13.7789 20.6386 16.135 20.6386 18.9844ZM32.8524 12.7378C33.5096 14.3268 33.7835 16.409 33.7835 18.9296C33.7835 24.7378 32.5785 27.5872 30.2234 27.5872C29.0185 27.5872 28.0874 26.7653 27.4301 25.1214C26.7729 23.4776 26.499 21.3954 26.499 18.9296C26.499 13.1761 27.704 10.3268 30.0591 10.3268C31.2641 10.272 32.1952 11.0939 32.8524 12.7378ZM79.1333 26.0529C80.9407 27.8612 83.2411 28.7927 85.9796 28.7927C87.6775 28.7927 89.1563 28.4639 90.4708 27.7516C91.7853 27.094 92.8259 26.2721 93.5379 25.2858L92.9902 24.6283C91.7853 25.5598 90.416 25.9981 88.8277 25.9981C86.6369 25.9981 84.939 25.2858 83.7888 23.8063C82.5839 22.3269 82.0361 20.4638 82.1457 18.0529H93.8665C93.8665 15.4227 93.2093 13.2857 91.84 11.5871C90.4708 9.94319 88.5538 9.12127 86.0891 9.12127C83.022 9.12127 80.6669 10.1076 78.969 12.0254C77.2711 13.9432 76.4496 16.2994 76.4496 19.094C76.4496 21.9433 77.3259 24.2447 79.1333 26.0529ZM83.1863 12.2994C83.7888 10.9843 84.5556 10.3268 85.5962 10.3268C87.2393 10.3268 88.0609 12.409 88.0609 16.6282L82.2552 16.7378C82.31 15.0939 82.5838 13.6145 83.1863 12.2994ZM108.6 10.1076C107.121 9.45003 105.259 9.06647 103.013 9.06647C100.713 9.06647 98.9054 9.66921 97.5361 10.8199C96.1669 11.9706 95.4549 13.3953 95.4549 15.0939C95.4549 16.5734 95.893 17.7241 96.7146 18.546C97.5361 19.3679 98.8506 20.0803 100.548 20.683C102.082 21.231 103.178 21.7789 103.725 22.2721C104.273 22.82 104.602 23.4228 104.602 24.2447C104.602 25.0118 104.328 25.7242 103.725 26.2721C103.178 26.8748 102.411 27.1488 101.425 27.1488C99.0149 27.1488 97.2075 25.3954 95.9478 21.8885L95.0167 22.1625L95.2358 27.642C97.2075 28.4091 99.3983 28.7927 101.809 28.7927C104.328 28.7927 106.245 28.2447 107.669 27.094C109.093 25.9981 109.805 24.4091 109.805 22.4365C109.805 21.1214 109.476 20.0255 108.764 19.2036C108.052 18.3816 106.902 17.6693 105.259 17.0118C103.452 16.3542 102.192 15.7515 101.535 15.2035C100.877 14.6556 100.548 13.998 100.548 13.1761C100.548 12.3542 100.768 11.6967 101.261 11.1487C101.754 10.6007 102.356 10.3816 103.123 10.3816C105.314 10.3816 106.902 11.9706 107.888 15.0939L108.819 14.82L108.6 10.1076ZM55.9107 9.61442C55.1439 9.23086 54.3224 9.06647 53.3913 9.06647C52.4602 9.06647 51.5291 9.45003 50.4884 10.2172C49.4478 10.9843 48.681 12.0254 48.0785 13.4501L48.1333 9.06647L39.8082 10.7103V11.4775L40.6298 11.5323C41.6704 11.6419 42.2729 12.4638 42.3824 13.9432C42.7111 17.3405 42.7111 20.957 42.3824 24.7926C42.2729 26.2721 41.6704 27.0392 40.6298 27.2036L39.8082 27.3132V28.3543H51.4195V27.3132L49.9407 27.2036C48.9001 27.094 48.2976 26.2721 48.1881 24.7926C47.8595 21.6145 47.8047 18.2172 48.0785 14.7104C48.4072 14.1624 49.1192 13.8337 50.2146 13.7241C51.31 13.6145 52.5697 13.9432 53.8842 14.7104L55.9107 9.61442Z" fill="white"/>
    </g>
    <defs>
        <clipPath id="clip0_475_1990">
            <rect width="109" height="29" fill="white" transform="translate(0.804688 0.736328)"/>
        </clipPath>
    </defs>
</svg>
