<svg width="182" height="30" viewBox="0 0 182 30" fill="none" xmlns="http://www.w3.org/2000/svg">
    <g clip-path="url(#clip0_475_1996)">
        <path d="M44.8605 15.7981C44.0985 16.5187 43.0624 16.879 41.7521 16.879H38.0582V21.4982H36.4297V8.72461H41.8315C43.2046 8.72461 44.2441 9.09816 44.9503 9.84526C45.6564 10.5923 46.007 11.5936 46.0021 12.8488C46.0021 14.0914 45.6216 15.0745 44.8605 15.7981ZM43.6395 14.8757C44.1299 14.3861 44.3751 13.712 44.3751 12.8532C44.3751 11.9407 44.1436 11.2401 43.6807 10.7515C43.2178 10.2629 42.5225 10.0181 41.5947 10.0171H38.0641V15.6086H41.5005C42.4371 15.6066 43.1501 15.3609 43.6395 14.8713V14.8757Z"
              fill="white"/>
        <path d="M47.888 21.4938H46.1992L51.0655 8.72461H52.9779L57.8237 21.4938H56.1496L54.7992 17.985H49.2384L47.888 21.4938ZM49.5165 16.6955H54.5005L51.9997 10.1331L49.5165 16.6955Z"
              fill="white"/>
        <path d="M62.6893 16.7351L58.1172 8.72461H59.806L63.4999 15.3472L67.1938 8.72461H68.8811L64.3208 16.7351V21.4938H62.6893V16.7351Z"
              fill="white"/>
        <path d="M72.772 11.2626V21.4938H71.1641V8.72461H72.9117L77.2411 17.5884L81.5705 8.72461H83.3182V21.4938H81.7088V11.2626L77.7972 19.2731H76.7042L72.772 11.2626Z"
              fill="white"/>
        <path d="M86.6953 8.72461H95.3335V10.0142H88.3238V14.4762H94.6185V15.7452H88.3238V20.2263H95.3335V21.4953H86.6953V8.72461Z"
              fill="white"/>
        <path d="M99.941 21.4938H98.3125V8.72461H99.7836L107.072 18.9955V8.72461H108.701V21.4938H107.209L99.941 11.245V21.4938Z"
              fill="white"/>
        <path d="M117.16 21.4938H115.531V10.0142H111.281V8.72461H121.41V10.0142H117.16V21.4938Z" fill="white"/>
        <path d="M130.513 20.7801C129.687 21.3881 128.465 21.6921 126.849 21.6921C125.26 21.6921 123.976 21.4963 122.996 21.1047V19.6579C124.185 20.098 125.443 20.3195 126.711 20.3115C127.887 20.3115 128.751 20.1529 129.303 19.8357C129.854 19.5184 130.128 18.9632 130.126 18.1701C130.146 17.7507 130.024 17.3368 129.779 16.9951C129.486 16.6542 129.109 16.3947 128.686 16.2417C127.979 15.973 127.252 15.7575 126.512 15.5969C125.109 15.2532 124.122 14.8126 123.552 14.275C122.982 13.7375 122.698 12.9972 122.699 12.0543C122.699 10.944 123.1 10.0813 123.901 9.46635C124.702 8.85144 125.883 8.54399 127.445 8.54399C128.113 8.5422 128.78 8.5913 129.441 8.69086C129.963 8.76286 130.478 8.87932 130.98 9.03895V10.4666C129.929 10.0968 128.823 9.90995 127.709 9.91432C126.584 9.91432 125.74 10.0798 125.178 10.4108C124.616 10.7418 124.332 11.2837 124.326 12.0367C124.306 12.4094 124.41 12.7783 124.62 13.0868C124.819 13.3512 125.154 13.5803 125.623 13.7713C126.306 14.0278 127.006 14.2364 127.718 14.3955C129.214 14.7519 130.26 15.2312 130.856 15.8334C131.452 16.4355 131.75 17.212 131.75 18.1628C131.753 19.2996 131.341 20.172 130.513 20.7801Z"
              fill="white"/>
        <path d="M136.523 8.72461H142.243C144.282 8.72461 145.827 9.23671 146.88 10.2609C147.932 11.2851 148.457 12.9277 148.454 15.1885C148.454 17.3427 147.928 18.9323 146.875 19.9575C145.823 20.9827 144.277 21.4948 142.238 21.4938H136.523V8.72461ZM141.766 18.6386C142.317 18.658 142.866 18.5578 143.374 18.3448C143.806 18.1312 144.143 17.7647 144.318 17.3167C144.536 16.8213 144.645 16.1109 144.645 15.1856C144.645 14.2603 144.547 13.5303 144.351 12.9957C144.196 12.5238 143.865 12.1294 143.427 11.8942C143.011 11.6827 142.459 11.5769 141.769 11.5769H140.257V18.6356L141.766 18.6386Z"
              fill="white"/>
        <path d="M150.344 8.72461H154.077V21.4938H150.344V8.72461Z" fill="white"/>
        <path d="M155.965 8.72461H159.858L162.836 17.1713L165.812 8.72461H169.726L164.82 21.4938H160.868L155.965 8.72461Z"
              fill="white"/>
        <path d="M171.613 8.72461H181.305V11.5799H175.347V13.6625H180.571V16.5574H175.347V18.6386H181.305V21.4938H171.613V8.72461Z"
              fill="white"/>
        <path d="M16.2455 18.2396H12.7031V11.8506H16.2337C16.3382 11.8506 16.4882 11.8506 16.5397 11.8506C16.5912 11.8506 16.6412 11.8506 16.675 11.8624C18.0505 12.046 19.1185 13.3972 19.1185 15.0378C19.1185 16.6783 18.0358 18.0501 16.6441 18.222C16.6177 18.222 16.5794 18.2308 16.5103 18.2367C16.4411 18.2425 16.3102 18.2381 16.2455 18.2396Z"
              fill="white"/>
        <path d="M8.58135 18.485V7.72061H16.2398C18.2729 7.72061 18.9275 8.16123 18.9275 8.16123L23.5393 3.71096C20.814 1.75873 17.482 0.837934 14.1391 1.11319C10.7962 1.38846 7.6603 2.84183 5.2921 5.21347C2.92391 7.58512 1.4778 10.7204 1.21232 14.0588C0.946844 17.3972 1.8793 20.7211 3.84298 23.4361L8.58135 18.485Z"
              fill="white"/>
        <path d="M26.6724 6.7998L22.2415 11.2177C22.2415 11.2177 22.4401 11.6451 22.7505 12.4368C23.1914 13.5265 23.3341 14.7137 23.1639 15.8766C22.9859 17.291 22.5754 18.9727 21.1661 20.4179C19.7568 21.8631 18.3711 22.3096 16.6705 22.3434C14.9699 22.3772 11.098 22.3434 11.098 22.3434L6.87891 26.5087C9.59829 28.5232 12.9517 29.4958 16.3289 29.2497C19.706 29.0036 22.8824 27.5551 25.28 25.1678C27.6776 22.7804 29.1369 19.613 29.3925 16.2419C29.648 12.8708 28.6828 9.52021 26.6724 6.7998Z"
              fill="white"/>
    </g>
    <defs>
        <clipPath id="clip0_475_1996">
            <rect width="181" height="29" fill="white" transform="translate(0.804688 0.736328)"/>
        </clipPath>
    </defs>
</svg>
